inDegrees=no
num_controls=7
num_derivatives=13
num_iterations=162
num_multipliers=7
num_parameters=0
num_slacks=7
num_states=26
objective=5.406617
objective_accelerations=0.615137
objective_balance=0.035424
objective_effort=0.234700
objective_height=4.431081
objective_ligament=0.090276
solver_duration=1797.336139
status=Solve_Succeeded
success=true
DataType=double
version=3
OpenSimVersion=4.4-2022-07-23-0e9fedc
endheader
time	/jointset/ground_pelvis/pelvis_tilt/value	/jointset/ground_pelvis/pelvis_tx/value	/jointset/ground_pelvis/pelvis_ty/value	/jointset/hip_l/hip_flexion_l/value	/jointset/hip_l/hip_adduction_l/value	/jointset/hip_l/hip_rotation_l/value	/jointset/back/lumbar_extension/value	/jointset/patellofemoral_l/patellar_flexion_l/value	/jointset/knee_l/knee_flexion_l/value	/jointset/knee_l/knee_adduction_l/value	/jointset/knee_l/knee_rotation_l/value	/jointset/ankle_l/ankle_angle_l/value	/jointset/subtalar_l/subtalar_angle_l/value	/jointset/ground_pelvis/pelvis_tilt/speed	/jointset/ground_pelvis/pelvis_tx/speed	/jointset/ground_pelvis/pelvis_ty/speed	/jointset/hip_l/hip_flexion_l/speed	/jointset/hip_l/hip_adduction_l/speed	/jointset/hip_l/hip_rotation_l/speed	/jointset/back/lumbar_extension/speed	/jointset/patellofemoral_l/patellar_flexion_l/speed	/jointset/knee_l/knee_flexion_l/speed	/jointset/knee_l/knee_adduction_l/speed	/jointset/knee_l/knee_rotation_l/speed	/jointset/ankle_l/ankle_angle_l/speed	/jointset/subtalar_l/subtalar_angle_l/speed	/forceset/tau_hip_flexion_l	/forceset/tau_hip_adduction_l	/forceset/tau_hip_rotation_l	/forceset/tau_knee_flexion_l	/forceset/tau_ankle_angle_l	/forceset/tau_subtalar_angle_l	/forceset/tau_lumbar_extension	lambda_cid13_p0	lambda_cid13_p1	lambda_cid13_p2	lambda_cid13_p3	lambda_cid13_p4	lambda_cid13_p5	lambda_cid14_p0	/jointset/ground_pelvis/pelvis_tilt/accel	/jointset/ground_pelvis/pelvis_tx/accel	/jointset/ground_pelvis/pelvis_ty/accel	/jointset/hip_l/hip_flexion_l/accel	/jointset/hip_l/hip_adduction_l/accel	/jointset/hip_l/hip_rotation_l/accel	/jointset/back/lumbar_extension/accel	/jointset/patellofemoral_l/patellar_flexion_l/accel	/jointset/knee_l/knee_flexion_l/accel	/jointset/knee_l/knee_adduction_l/accel	/jointset/knee_l/knee_rotation_l/accel	/jointset/ankle_l/ankle_angle_l/accel	/jointset/subtalar_l/subtalar_angle_l/accel	gamma_cid13_p0	gamma_cid13_p1	gamma_cid13_p2	gamma_cid13_p3	gamma_cid13_p4	gamma_cid13_p5	gamma_cid14_p0
0.5	-0.2217867622207638	0.02615085860684324	0.7817828223597809	0.8860061549224733	-0.4442227812584871	-0.2381917663803505	-0.2494358386947785	0.8245224281987921	0.8245224281988379	-0.1195619633641395	-0.166170898592736	0.219575121274695	0.02347826277839023	-0.4669670616718712	-0.07130806173135826	-0.4587339612087394	1.916504204298973	-0.2374214812384416	0.7565845817301814	-0.1434233192383808	2.036757533426907	2.03675753342749	0.1394554854585392	-0.05402809900770012	0.7660917794101556	0.1573643455851449	-0.1150117344111472	0.02830355198240752	-0.01361036569125105	-0.2337469251071811	0.00486147289021959	0.03542458537114553	0.13114349352466	-30.68069780478615	-14.34340113789811	6.897253291269508	-0.6307127877089994	-523.7531252965479	-68.33648073915401	-24.48609920592134	0.3847486449917277	0.3501358722193769	-0.4586855048176502	-0.932253175991942	0.6576926936519172	-0.2822667408544371	0.9569721032243347	-1.318036517272566	-1.318036517272564	0.01143696388770877	0.1359332463516006	-0.5865205295870262	0.5656179557761182	-5.463640682879957e-07	-3.769125972222105e-07	2.874480959537025e-06	1.277108497162954e-07	-5.767245939643306e-07	-7.441006420465603e-07	-4.108114427208181e-07
0.51	-0.2264361087071239	0.02545537089662634	0.7771735603543987	0.9051208349941621	-0.4465649922304007	-0.230638576738193	-0.2508227978928475	0.8448208676064729	0.8448208676065202	-0.1181708471932334	-0.1667036663646145	0.2272051985842246	0.02507828506456237	-0.4628408202278742	-0.06778553174142586	-0.463018328299899	1.906162305005331	-0.2310091640907649	0.7539569281012855	-0.1339774672721423	2.022651917014149	2.022651917014426	0.1387555491631552	-0.05251972032264782	0.7598147261992727	0.1626080129081441	-0.1188443694708157	0.02959921464976777	-0.01353569253858832	-0.2367989480162725	0.002122007080069116	0.03550237208333087	0.1342220250216149	-31.70413198840886	-14.16752873250185	6.834421574560857	-0.234520788670638	-526.7686408136495	-68.15817588107923	-23.53220909051376	0.4357090846607189	0.3539319961641244	-0.3984089868429041	-1.125659723825468	0.6343502527051293	-0.2678430365164522	0.937049708876861	-1.49850775415373	-1.498507754199523	-0.1124768339732172	0.1597002272544465	-0.6646549915174979	0.4986385172798608	-5.235590394809623e-07	-2.500629110414275e-07	2.890505957413361e-06	1.533365524519482e-07	-5.613197646880281e-07	-6.418816642484739e-07	-3.996092910703303e-07
0.52	-0.2310423633409345	0.02479523257306544	0.7725244353429892	0.924123995789358	-0.4488428102253599	-0.2231146293048493	-0.2521155669781438	0.8649699141398594	0.8649699141398928	-0.1167870839668342	-0.1672210683400881	0.2347692339067092	0.02672972350330824	-0.4583486911615883	-0.0642381844001567	-0.4667065624141775	1.894200349000683	-0.2245428858479031	0.7507361399680205	-0.1245852966837668	2.006878958566337	2.00687895856631	0.1379848965589025	-0.05095493973070119	0.7528833820012464	0.1676475760998654	-0.1226770045304908	0.0308948773171184	-0.01346101938612453	-0.2398509709253551	-0.0006174587300835268	0.03558015879550524	0.1373005565185686	-32.72996730099659	-13.99088804535156	6.771072109019776	0.1268353870622789	-529.8424053332976	-68.03684045517218	-22.58044933095749	0.4579261694495777	0.3550993424866923	-0.3394589094414425	-1.256264518192977	0.6684849126889272	-0.4008936417282555	0.9462358276517694	-1.651504924283266	-1.651504924283252	-0.00270629788601822	0.1472136277304665	-0.7173787270157462	0.5247971295205242	-4.997535769014601e-07	-1.320483659827361e-07	2.895489870763525e-06	1.787836369252684e-07	-5.49734875407273e-07	-5.390084098832204e-07	-3.875712515734738e-07
0.53	-0.2356019390539819	0.02417063370706722	0.7678414443126003	0.9429996631702449	-0.4510556663747315	-0.2156256134367303	-0.253314779331527	0.8849530738577117	0.8849530738577336	-0.1154113819910849	-0.1677224234256221	0.2422607725053172	0.02843059123150838	-0.4535063363230337	-0.06068275081131494	-0.4697879134941174	1.880672584478571	-0.2180216515440766	0.746964142787093	-0.1152806327338186	1.989488537685519	1.989488537685348	0.1371500773419018	-0.04931717209281869	0.7453208896843183	0.1724894078096136	-0.1264256859165933	0.03210504145177786	-0.01332671210871762	-0.2429856112778374	-0.003300305426819169	0.03551101001202454	0.1402845960023598	-33.74651610033435	-13.73906613969	6.680893296509171	0.5622163081877386	-532.9390929275804	-67.82016257523249	-21.63365182472823	0.5063423838275501	0.3556294951618318	-0.277022411828503	-1.440189595610408	0.6445396618053989	-0.381127732118869	0.9190628675829402	-1.82240151823363	-1.822401518255047	-0.1246010796729081	0.172450547467963	-0.7912018663487647	0.4580642240808057	-4.716044474793593e-07	-1.129323147689673e-08	2.881534883056857e-06	2.032828931620286e-07	-5.345155885667133e-07	-4.299843622440571e-07	-3.72810040223485e-07
